#!OML:ASF E:\Steps\Project 1\Capture day 1\Session 2\Subject.ASF
:FULLY-SPECIFIED
:DEGREES
5036
root 10.5915 16.4551 6.81968 25.1573 -4.2719 0.632643
lowerback -22.2743 -4.11739 -5.91257
upperback -1.13629 -3.91185 -0.255109
thorax 11.618 -2.13438 1.83357
lowerneck 1.10384 -13.7548 -3.03197
upperneck -6.40062 -18.1085 9.35639
head -1.01937 -9.21661 3.543
rclavicle 1.78906e-014 9.54166e-015
rhumerus -30.3123 -9.11835 -74.802
rradius 33.0312
rwrist 5.22531
rhand -6.26461 -777.594
rfingers 7.12502
rthumb 19.578 -806.629
lclavicle 1.78906e-014 9.54166e-015
lhumerus -26.3601 5.1414 66.8172
lradius 25.1007
lwrist -9.97215
lhand -23.9084 -12.662
lfingers 7.12502
lthumb 2.5658 -342.698
rfemur -26.4328 2.6048 15.7867
rtibia 11.9637
rfoot -17.3782 -7.03186
rtoes -22.9847
lfemur -25.1538 -5.84886 -17.1266
ltibia 8.67784
lfoot 354.939 1.29587
ltoes -4.6136
5037
root 10.5875 16.458 6.80776 25.1772 -4.22424 0.573678
lowerback -22.1464 -4.09946 -5.89758
upperback -1.07573 -3.89935 -0.259204
thorax 11.6142 -2.12914 1.82895
lowerneck 1.07798 -13.6347 -3.10132
upperneck -6.33216 -17.9503 9.44131
head -0.988245 -9.13675 3.57739
rclavicle 3.67752e-014 2.3059e-014
rhumerus -30.193 -8.94976 -74.6781
rradius 33.1167
rwrist 4.91549
rhand -6.66895 -777.043
rfingers 7.12502
rthumb 19.1892 -806.117
lclavicle 3.67752e-014 2.3059e-014
lhumerus -26.1013 5.15621 66.526
lradius 25.1569
lwrist -10.2532
lhand -23.9927 -12.3163
lfingers 7.12502
lthumb 2.4844 -342.351
rfemur -26.7004 2.56844 15.8777
rtibia 12.3897
rfoot -17.4208 -7.00739
rtoes -23.5199
lfemur -25.2783 -6.04599 -16.9397
ltibia 8.75559
lfoot 354.939 1.4462
ltoes -1.18904
5038
root 10.5825 16.4612 6.79488 25.2363 -4.19747 0.57179
lowerback -22.0196 -4.08848 -5.96997
upperback -1.05559 -3.8776 -0.242059
thorax 11.5717 -2.1237 1.90195
lowerneck 1.46675 -13.442 -3.29651
upperneck -6.48727 -17.6838 9.74724
head -1.07584 -9.01743 3.75459
rclavicle 2.70347e-014 1.90833e-014
rhumerus -30.0895 -8.84174 -74.4559
rradius 33.237
rwrist 4.68255
rhand -6.99324 -776.715
rfingers 7.12502
rthumb 18.8773 -805.819
lclavicle 2.70347e-014 1.90833e-014
lhumerus -25.904 5.11626 66.35
lradius 25.2684
lwrist -10.4632
lhand -24.1115 -12.0483
lfingers 7.12502
lthumb 2.3697 -342.082
rfemur -27.0851 2.62801 15.8757
rtibia 12.917
rfoot -17.5258 -7.08504
rtoes -23.8113
lfemur -25.4886 -6.1079 -16.8624
ltibia 8.88067
lfoot 354.995 1.52351
ltoes -0.450615
5039
root 10.5811 16.4621 6.78332 25.2506 -4.15138 0.505996
lowerback -21.8676 -4.0409 -5.94122
upperback -1.02907 -3.83785 -0.198862
thorax 11.5156 -2.1054 1.95379
lowerneck 1.69597 -13.3425 -3.44422
upperneck -6.55307 -17.5505 9.85521
head -1.1225 -8.95613 3.83946
rclavicle 4.94974e-014 8.74653e-015
rhumerus -30.0293 -8.98887 -74.0993
rradius 33.3642
rwrist 4.89871
rhand -6.79105 -777.219
rfingers 7.12502
rthumb 19.0718 -806.304
lclavicle 4.94974e-014 8.74653e-015
lhumerus -25.7608 4.90336 66.2663
lradius 25.3963
lwrist -10.4665
lhand -24.3231 -12.2117
lfingers 7.12502
lthumb 2.16529 -342.243
rfemur -27.4595 2.59146 15.962
rtibia 13.5127
rfoot -17.6626 -7.06212
rtoes -23.769
lfemur -25.6861 -5.86907 -16.8764
ltibia 9.17917
lfoot 355.056 1.37788
ltoes -3.85446
5040
root 10.5806 16.464 6.77511 25.1116 -4.18952 0.447882
lowerback -21.6517 -3.94818 -5.90734
upperback -0.917521 -3.73483 -0.214993
thorax 11.5107 -2.05779 1.95689
lowerneck 1.24423 -13.2616 -3.31549
upperneck -6.25227 -17.4561 9.60556
head -0.988584 -8.89146 3.68468
rclavicle -2.34566e-014 -1.90833e-014
rhumerus -29.8884 -9.1791 -73.8135
rradius 33.4343
rwrist 5.00301
rhand -6.29649 -777.634
rfingers 7.12502
rthumb 19.5473 -806.671
lclavicle -2.34566e-014 -1.90833e-014
lhumerus -25.5058 4.79537 66.1279
lradius 25.4491
lwrist -10.4205
lhand -24.6627 -12.4143
lfingers 7.12502
lthumb 1.83731 -342.442
rfemur -27.5892 2.5633 16.0475
rtibia 13.9495
rfoot -17.6718 -6.87687
rtoes -22.9109
lfemur -25.6056 -5.86654 -16.8253
ltibia 9.32965
lfoot 355.039 1.33936
ltoes -2.20519
5041
root 10.5775 16.4671 6.76331 24.9348 -4.3197 0.497485
lowerback -21.3592 -3.88572 -6.05741
upperback -0.794168 -3.62928 -0.251626
thorax 11.4871 -2.01829 2.0447
lowerneck 0.518061 -13.2079 -3.10486
upperneck -5.58797 -17.4167 9.20808
head -0.70879 -8.84129 3.4271
rclavicle 4.03533e-014 6.36111e-015
rhumerus -29.6413 -9.2827 -73.6029
rradius 33.4373
rwrist 4.93832
rhand -5.86818 -777.572
rfingers 7.12502
rthumb 19.9591 -806.567
lclavicle 4.03533e-014 6.36111e-015
lhumerus -25.2584 5.04066 65.892
lradius 25.4953
lwrist -10.5561
lhand -24.9328 -12.5803
lfingers 7.12502
lthumb 1.57645 -342.606
rfemur -27.7287 2.49892 16.0201
rtibia 14.4484
rfoot -17.6319 -6.75599
rtoes -22.817
lfemur -25.4445 -6.049 -16.8219
ltibia 9.34549
lfoot 354.979 1.51186
ltoes 1.39383
5042
root 10.5743 16.4696 6.74748 24.8662 -4.40167 0.528385
lowerback -21.0672 -3.86287 -6.21038
upperback -0.731747 -3.58465 -0.232161
thorax 11.4031 -2.00716 2.17884
lowerneck 0.965055 -13.054 -3.21725
upperneck -6.09723 -17.1829 9.49045
head -0.928359 -8.74649 3.60725
rclavicle -2.98177e-015 -2.38542e-015
rhumerus -29.366 -9.21309 -73.4152
rradius 33.4246
rwrist 4.76545
rhand -5.71645 -777.333
rfingers 7.12502
rthumb 20.1049 -806.313
lclavicle -2.98177e-015 -2.38542e-015
lhumerus -25.0784 5.28699 65.6829
lradius 25.5184
lwrist -10.7067
lhand -24.9738 -12.6954
lfingers 7.12502
lthumb 1.53684 -342.721
rfemur -28.0394 2.37329 16.0156
rtibia 15.0204
rfoot -17.6224 -6.65994
rtoes -23.5237
lfemur -25.4798 -6.1081 -16.8235
ltibia 9.41008
lfoot 354.939 1.64545
ltoes 3.73969
5043
root 10.5709 16.473 6.74056 24.7608 -4.57493 0.468931
lowerback -20.8418 -3.77756 -6.26769
upperback -0.671207 -3.47468 -0.224632
thorax 11.3402 -1.96 2.2629
lowerneck 1.31819 -12.9381 -3.30443
upperneck -6.37732 -17.0124 9.68564
head -1.06587 -8.67619 3.73426
rclavicle 1.74931e-014 3.57812e-014
rhumerus -29.2923 -9.11517 -73.2547
rradius 33.5997
rwrist 4.46732
rhand -6.07523 -777.121
rfingers 7.12502
rthumb 19.76 -806.136
lclavicle 1.74931e-014 3.57812e-014
lhumerus -24.8939 5.12196 65.5424
lradius 25.5578
lwrist -10.6784
lhand -25.053 -12.6653
lfingers 7.12502
lthumb 1.46042 -342.691
rfemur -28.2777 2.35236 16.1003
rtibia 15.5599
rfoot -17.6168 -6.32956
rtoes -23.4356
lfemur -25.3533 -6.03231 -16.8043
ltibia 9.37873
lfoot 354.947 1.80828
ltoes 3.53494
5044
root 10.5678 16.4749 6.73499 24.6554 -4.76729 0.365418
lowerback -20.6867 -3.67557 -6.26953
upperback -0.596943 -3.34898 -0.226412
thorax 11.326 -1.90305 2.30598
lowerneck 1.23121 -12.7761 -3.17506
upperneck -6.13131 -16.8082 9.49124
head -1.01403 -8.5661 3.63629
rclavicle 1.25234e-014 1.03368e-014
rhumerus -29.2615 -9.14376 -73.0942
rradius 33.7851
rwrist 4.42368
rhand -6.2297 -776.954
rfingers 7.12502
rthumb 19.6115 -805.985
lclavicle 1.25234e-014 1.03368e-014
lhumerus -24.7261 4.90659 65.3916
lradius 25.7129
lwrist -10.5715
lhand -25.1298 -12.4322
lfingers 7.12502
lthumb 1.38619 -342.457
rfemur -28.5498 2.35709 16.2375
rtibia 16.2076
rfoot -17.5863 -6.03639
rtoes -23.0881
lfemur -25.2164 -6.00104 -16.733
ltibia 9.38117
lfoot 355.003 2.06905
ltoes 0.760056
